<?xml version="1.0" encoding="utf-8"?>
<!-- Generator: Adobe Illustrator 19.0.0, SVG Export Plug-In . SVG Version: 6.00 Build 0)  -->
<svg version="1.1" id="Layer_1" xmlns="http://www.w3.org/2000/svg" xmlns:xlink="http://www.w3.org/1999/xlink" x="0px" y="0px"
	 viewBox="-830 926.9 338.8 148.1" style="enable-background:new -830 926.9 338.8 148.1;" xml:space="preserve">
<g>
	<g>
		<g>
			<path d="M-808.1,985.2c-0.6-0.4-1-1.2-1-2.1c0-1.5,1.2-2.7,2.6-2.7c0.7,0,1.3,0.3,1.7,0.6c4.5,3.9,9.1,5.7,15.2,5.7
				c6.5,0,10.7-3.4,10.7-8.2v-0.1c0-4.5-2.4-7-12.5-9.2c-11.1-2.4-16.2-6-16.2-13.9v-0.1c0-7.6,6.7-13.2,15.8-13.2
				c6.3,0,10.9,1.6,15.4,4.8c0.6,0.4,1.2,1.2,1.2,2.2c0,1.4-1.2,2.6-2.6,2.6c-0.6,0-1.1-0.1-1.6-0.5c-4.1-3-8-4.2-12.5-4.2
				c-6.3,0-10.3,3.4-10.3,7.8v0.1c0,4.5,2.5,7.1,13.1,9.4c10.7,2.3,15.7,6.3,15.7,13.6v0.1c0,8.3-6.9,13.6-16.5,13.6
				C-796.9,991.6-802.8,989.4-808.1,985.2z"/>
		</g>
		<g>
			<path d="M-762.1,987.4l19.5-42.8c0.7-1.5,1.7-2.4,3.4-2.4h0.3c1.7,0,2.8,0.9,3.4,2.4l19.6,42.7c0.2,0.5,0.3,1,0.3,1.4
				c0,1.4-1.2,2.6-2.6,2.6c-1.3,0-2.2-0.9-2.7-2l-5-11.1h-26.4l-5,11.2c-0.5,1.2-1.4,1.9-2.6,1.9c-1.4,0-2.5-1.1-2.5-2.5
				C-762.4,988.4-762.3,987.9-762.1,987.4z M-728,973.3l-11.1-24.6l-11.1,24.6H-728z"/>
		</g>
		<g>
			<path d="M-705.7,945.5c0-1.5,1.2-2.8,2.7-2.8h18c5.9,0,10.7,1.8,13.7,4.8c2.3,2.3,3.7,5.7,3.7,9.5v0.1c0,7.9-5.4,12.5-12.9,14
				l12,15.4c0.6,0.6,0.9,1.2,0.9,2c0,1.4-1.4,2.7-2.8,2.7c-1.1,0-1.9-0.6-2.5-1.4l-13.6-17.6h-13.8v16.3c0,1.5-1.2,2.8-2.8,2.8
				c-1.4,0-2.7-1.2-2.7-2.8V945.5z M-685.5,967.3c7.2,0,12.4-3.7,12.4-9.9v-0.1c0-5.9-4.5-9.5-12.3-9.5h-14.9v19.6H-685.5z"/>
		</g>
		<g>
			<path d="M-652,988.2v-42.7c0-1.5,1.2-2.8,2.7-2.8h29.9c1.4,0,2.5,1.1,2.5,2.5c0,1.4-1.1,2.5-2.5,2.5h-27.2v16.5h24.1
				c1.4,0,2.5,1.2,2.5,2.5c0,1.4-1.1,2.5-2.5,2.5h-24.1V986h27.5c1.4,0,2.5,1.1,2.5,2.5c0,1.4-1.1,2.5-2.5,2.5h-30.3
				C-650.8,991-652,989.7-652,988.2z"/>
		</g>
		<g>
			<path d="M-600.7,945.2c0-1.4,1.2-2.7,2.7-2.7h0.8c1.2,0,2,0.6,2.8,1.6l29.3,37.3v-36.3c0-1.4,1.2-2.7,2.7-2.7
				c1.4,0,2.6,1.2,2.6,2.7v43.5c0,1.4-1,2.5-2.5,2.5h-0.3c-1.2,0-2-0.7-2.8-1.7l-29.9-38.2v37.3c0,1.4-1.2,2.7-2.7,2.7
				c-1.4,0-2.6-1.2-2.6-2.7V945.2z"/>
		</g>
		<g>
			<path d="M-515,985.7h-11.9v-37.8h11.9c1.5,0,2.8-1.2,2.8-2.7c0-1.5-1.2-2.8-2.8-2.8h-29.3c-1.5,0-2.8,1.2-2.8,2.8
				c0,1.4,1.2,2.7,2.8,2.7h11.9v37.8h-11.9c-1.5,0-2.8,1.2-2.8,2.8c0,1.4,1.2,2.7,2.8,2.7h29.3c1.5,0,2.8-1.2,2.8-2.7
				C-512.2,987-513.4,985.7-515,985.7z"/>
		</g>
		<g>
			<path d="M-814.4,1053.8l19.6-42.8c0.7-1.5,1.7-2.4,3.4-2.4h0.3c1.7,0,2.8,0.9,3.4,2.4l19.6,42.7c0.2,0.5,0.3,1,0.3,1.4
				c0,1.4-1.2,2.6-2.6,2.6c-1.3,0-2.2-0.9-2.7-2l-5-11.1h-26.4l-5,11.2c-0.5,1.2-1.4,1.9-2.6,1.9c-1.4,0-2.5-1.1-2.5-2.5
				C-814.7,1054.9-814.7,1054.4-814.4,1053.8z M-780.3,1039.7l-11.1-24.6l-11.1,24.6H-780.3z"/>
		</g>
		<g>
			<path d="M-758,1012c0-1.5,1.2-2.8,2.7-2.8h18c5.9,0,10.7,1.8,13.7,4.8c2.3,2.3,3.7,5.7,3.7,9.5v0.1c0,7.9-5.4,12.5-12.9,14
				l12,15.4c0.5,0.6,0.9,1.2,0.9,2c0,1.4-1.4,2.7-2.8,2.7c-1.1,0-1.9-0.6-2.5-1.4l-13.6-17.6h-13.8v16.3c0,1.5-1.2,2.8-2.8,2.8
				c-1.4,0-2.7-1.2-2.7-2.8V1012z M-737.8,1033.8c7.2,0,12.4-3.7,12.4-9.9v-0.1c0-5.9-4.5-9.5-12.3-9.5h-14.9v19.5H-737.8z"/>
		</g>
		<g>
			<path d="M-689.4,1014.2h-14c-1.4,0-2.5-1.1-2.5-2.5c0-1.4,1.2-2.5,2.5-2.5h33.5c1.4,0,2.5,1.2,2.5,2.5c0,1.4-1.2,2.5-2.5,2.5h-14
				v40.8c0,1.5-1.2,2.8-2.8,2.8c-1.5,0-2.8-1.2-2.8-2.8V1014.2z"/>
		</g>
		<g>
			<path d="M-599.7,1011.6c0-1.5,1.2-2.8,2.7-2.8c1.5,0,2.8,1.2,2.8,2.8v26.4l27.5-28.2c0.6-0.6,1.2-1,2.1-1c1.4,0,2.6,1.3,2.6,2.7
				c0,0.8-0.3,1.4-0.9,1.9l-17.1,16.9l18.3,22.6c0.5,0.6,0.8,1.2,0.8,2c0,1.4-1.2,2.8-2.8,2.8c-1,0-1.7-0.6-2.2-1.2l-18-22.4
				l-10.4,10.4v10.5c0,1.5-1.2,2.8-2.8,2.8c-1.4,0-2.7-1.2-2.7-2.8V1011.6z"/>
		</g>
		<g>
			<path d="M-547.3,1011.6c0-1.5,1.2-2.8,2.7-2.8c1.5,0,2.8,1.2,2.8,2.8v40.8h27.5c1.4,0,2.5,1.2,2.5,2.5c0,1.4-1.1,2.5-2.5,2.5
				h-30.2c-1.4,0-2.7-1.2-2.7-2.8V1011.6z"/>
		</g>
		<g>
			<path d="M-619.7,1052.4h-11.9v-37.8h11.9c1.5,0,2.8-1.2,2.8-2.7c0-1.5-1.2-2.8-2.8-2.8h-29.3c-1.5,0-2.8,1.2-2.8,2.8
				c0,1.4,1.2,2.7,2.8,2.7h11.9v37.8h-11.9c-1.5,0-2.8,1.2-2.8,2.8c0,1.4,1.2,2.7,2.8,2.7h29.3c1.5,0,2.8-1.2,2.8-2.7
				C-616.9,1053.7-618.1,1052.4-619.7,1052.4z"/>
		</g>
	</g>
	<g>
		<path d="M-499.1,1073.2h-328.2c-1.5,0-2.7-1.2-2.7-2.7v-141c0-1.5,1.2-2.7,2.7-2.7h29.5c0.8,0,1.5,0.3,2,0.9l5,5.8l5.1-5.8
			c0.5-0.6,1.2-0.9,2-0.9h284.6c1.5,0,2.7,1.2,2.7,2.7v141C-496.4,1072-497.6,1073.2-499.1,1073.2z M-824.6,1067.9h322.9V932.2
			h-280.7l-6.4,7.2c-0.5,0.6-1.2,0.9-2,0.9c0,0,0,0,0,0c-0.8,0-1.5-0.3-2-0.9l-6.2-7.2h-25.5V1067.9z"/>
	</g>
</g>
</svg>
