<?xml version="1.0" encoding="utf-8"?>
<!-- Generator: Adobe Illustrator 22.0.1, SVG Export Plug-In . SVG Version: 6.00 Build 0)  -->
<svg version="1.1" id="Layer_1" xmlns="http://www.w3.org/2000/svg" xmlns:xlink="http://www.w3.org/1999/xlink" x="0px" y="0px"
	 viewBox="0 0 338.8 148.1" style="enable-background:new 0 0 338.8 148.1;" xml:space="preserve">
<style type="text/css">
	.st0{font-family:'Buro-Steady';}
	.st1{font-size:68.0935px;}
</style>
<g>
	<path d="M320,5c3.9,0,7,3.1,7,7v124.1c0,3.9-3.1,7-7,7H12c-3.9,0-7-3.1-7-7V12c0-3.9,3.1-7,7-7H320 M320,0H12C5.4,0,0,5.4,0,12
		v124.1c0,6.6,5.4,12,12,12h308c6.6,0,12-5.4,12-12V12C332,5.4,326.6,0,320,0L320,0z"/>
</g>
<text transform="matrix(1.1701 0 0 1 18.002 68.6797)"><tspan x="0" y="0" class="st0 st1">ALIA</tspan><tspan x="0" y="58.6" class="st0 st1">DANNY</tspan></text>
</svg>
